<svg width="128" height="128" viewBox="0 0 64 64" fill="none" xmlns="http://www.w3.org/2000/svg">
  <title>CWS Mainmark</title>
  <g stroke="#7A2952" stroke-width="2.2" stroke-linecap="round" stroke-linejoin="round">
    <path d="M18 24l6-8 4 8"/>
    <path d="M40 24l4-8 6 8"/>
    <path d="M18 24c-5.523 0-10 4.477-10 10s4.477 10 10 10h27c6.075 0 11-4.925 11-11s-4.925-11-11-11c-.74 0-1.462.073-2.16.211A14.002 14.002 0 0 0 18 24Z"/>
    <path d="M26 34h.01"/>
    <path d="M38 34h.01"/>
    <path d="M29 39c1.5 1.5 4.5 1.5 6 0"/>
    <path d="M19 36l-6 1.5"/>
    <path d="M19 40l-6 1.5"/>
    <path d="M45 36l6 1.5"/>
    <path d="M45 40l6 1.5"/>
  </g>
</svg>
