<svg width="128" height="128" viewBox="0 0 64 64" fill="none" xmlns="http://www.w3.org/2000/svg">
  <title>Snack Notification Service</title>
  <g stroke="#7A2952" stroke-width="2.2" stroke-linecap="round" stroke-linejoin="round">
    <path d="M32 12c8 0 14 6 14 14v7c0 3 1 6 3 8l3 3H12l3-3c2-2 3-5 3-8v-7c0-8 6-14 14-14Z"/>
    <path d="M27 49c1 3 3 5 5 5s4-2 5-5"/>
    <path d="M22 18l3-6 3 6"/>
    <path d="M36 18l3-6 3 6"/>
    <path d="M32 28v8"/>
    <path d="M26 34h12"/>
    <path d="M50 20c2 1 4 3 5 5"/>
    <path d="M14 25c1-2 3-4 5-5"/>
  </g>
</svg>
